<svg width="28" height="24" viewBox="0 0 28 24" fill="none" xmlns="http://www.w3.org/2000/svg">
<path fill-rule="evenodd" clip-rule="evenodd" d="M12.9904 1.5L13.8564 0L14.6531 1.37988L14.7224 1.5L15.4296 2.72475L17.5001 6.31106L18.2766 7.65592L20.3471 11.2422L21.1236 12.5871L23.1941 16.1734L23.9706 17.5182L26.0411 21.1046L26.8176 22.4494L26.8468 22.5L27.7128 24H25.9808H1.73205H0V24L0.257928 23.5532L0.866025 22.5L7.98535 10.1689L10.8831 5.14985L12.9904 1.5ZM12.0835 6.07084L4.35603 19.4551L16.402 7.40914L14.3315 3.82283L12.0835 6.07084ZM17.1785 8.754L3.43248 22.5H9.08932L19.249 12.3403L17.1785 8.754ZM20.0255 13.6852L11.2106 22.5H16.8675L22.096 17.2715L20.0255 13.6852ZM22.8725 18.6163L18.9888 22.5H24.6457L24.9431 22.2026L22.8725 18.6163Z" fill="#FAF0E6"/>
</svg>
