<svg width="30" height="24" viewBox="0 0 30 24" fill="none" xmlns="http://www.w3.org/2000/svg">
<path fill-rule="evenodd" clip-rule="evenodd" d="M5.30994 8.94491L7.17116 1.5H12.7548L5.30994 8.94491ZM2.54128 13.8349L3.24839 11.0065L5.13401 3.46397L5.84111 0.635544L6 0H6.47666H8.59798H14.2548H16.3762H22.033H24L24.0309 0.123458L25.1622 4.64895L25.5865 6.346L26.7179 10.8715L27.1421 12.5685L28.2735 17.094L28.6978 18.7911L29.625 22.5L29.8291 23.3166L30 24H29.1457H28.4538H23.4888H21.3675H15.7107H13.5893H7.93251H5.81119H1.54616H0.154322H0L0.375 22.5L0.655667 21.3773L2.54128 13.8349ZM2.71722 19.3158L4.60283 11.7733L14.8762 1.5H20.533L2.71722 19.3158ZM2.01011 22.1442L1.92116 22.5H7.31119L23.9253 5.88588L22.8288 1.5H22.6543L2.01011 22.1442ZM24.3496 7.58294L9.43251 22.5H15.0893L25.4809 12.1084L24.3496 7.58294ZM25.9052 13.8055L17.2107 22.5H22.8675L27.0366 18.331L25.9052 13.8055ZM27.4608 20.028L24.9888 22.5H28.0788L27.4608 20.028Z" fill="#FAF0E6"/>
</svg>
