<svg width="124" height="122" viewBox="0 0 124 122" fill="none" xmlns="http://www.w3.org/2000/svg">
<g clip-path="url(#clip0_58_321)">
<path d="M5.32227 53.2695V45.5H6.41211V54.5H5.41602L5.32227 53.2695ZM1.05664 51.4004V51.2773C1.05664 50.793 1.11523 50.3535 1.23242 49.959C1.35352 49.5605 1.52344 49.2188 1.74219 48.9336C1.96484 48.6484 2.22852 48.4297 2.5332 48.2773C2.8418 48.1211 3.18555 48.043 3.56445 48.043C3.96289 48.043 4.31055 48.1133 4.60742 48.2539C4.9082 48.3906 5.16211 48.5918 5.36914 48.8574C5.58008 49.1191 5.74609 49.4355 5.86719 49.8066C5.98828 50.1777 6.07227 50.5977 6.11914 51.0664V51.6055C6.07617 52.0703 5.99219 52.4883 5.86719 52.8594C5.74609 53.2305 5.58008 53.5469 5.36914 53.8086C5.16211 54.0703 4.9082 54.2715 4.60742 54.4121C4.30664 54.5488 3.95508 54.6172 3.55273 54.6172C3.18164 54.6172 2.8418 54.5371 2.5332 54.377C2.22852 54.2168 1.96484 53.9922 1.74219 53.7031C1.52344 53.4141 1.35352 53.0742 1.23242 52.6836C1.11523 52.2891 1.05664 51.8613 1.05664 51.4004ZM2.14648 51.2773V51.4004C2.14648 51.7168 2.17773 52.0137 2.24023 52.291C2.30664 52.5684 2.4082 52.8125 2.54492 53.0234C2.68164 53.2344 2.85547 53.4004 3.06641 53.5215C3.27734 53.6387 3.5293 53.6973 3.82227 53.6973C4.18164 53.6973 4.47656 53.6211 4.70703 53.4688C4.94141 53.3164 5.12891 53.1152 5.26953 52.8652C5.41016 52.6152 5.51953 52.3438 5.59766 52.0508V50.6387C5.55078 50.4238 5.48242 50.2168 5.39258 50.0176C5.30664 49.8145 5.19336 49.6348 5.05273 49.4785C4.91602 49.3184 4.74609 49.1914 4.54297 49.0977C4.34375 49.0039 4.10742 48.957 3.83398 48.957C3.53711 48.957 3.28125 49.0195 3.06641 49.1445C2.85547 49.2656 2.68164 49.4336 2.54492 49.6484C2.4082 49.8594 2.30664 50.1055 2.24023 50.3867C2.17773 50.6641 2.14648 50.9609 2.14648 51.2773ZM11.5449 45.9219V54.5H10.4609V47.2754L8.27539 48.0723V47.0938L11.375 45.9219H11.5449Z" fill="#FAF0E6"/>
<rect x="16.5" y="0.5" width="1.5" height="100" fill="#FAF0E6"/>
<g clip-path="url(#clip1_58_321)">
<g clip-path="url(#clip2_58_321)">
<rect x="24.2035" y="121.286" width="141" height="1.5" transform="rotate(-90 24.2035 121.286)" fill="#FAF0E6"/>
<rect x="29.7035" y="121.286" width="141" height="1.5" transform="rotate(-90 29.7035 121.286)" fill="#FAF0E6"/>
<rect x="35.2035" y="121.286" width="141" height="1.5" transform="rotate(-90 35.2035 121.286)" fill="#FAF0E6"/>
<rect x="40.7034" y="121.286" width="141" height="1.5" transform="rotate(-90 40.7034 121.286)" fill="#FAF0E6"/>
<rect x="46.2034" y="121.286" width="141" height="1.5" transform="rotate(-90 46.2034 121.286)" fill="#FAF0E6"/>
<rect x="51.7034" y="121.286" width="141" height="1.5" transform="rotate(-90 51.7034 121.286)" fill="#FAF0E6"/>
<rect x="57.2034" y="121.286" width="141" height="1.5" transform="rotate(-90 57.2034 121.286)" fill="#FAF0E6"/>
<rect x="62.7034" y="121.286" width="141" height="1.5" transform="rotate(-90 62.7034 121.286)" fill="#FAF0E6"/>
<rect x="68.2034" y="121.286" width="141" height="1.5" transform="rotate(-90 68.2034 121.286)" fill="#FAF0E6"/>
<rect x="73.7034" y="121.286" width="141" height="1.5" transform="rotate(-90 73.7034 121.286)" fill="#FAF0E6"/>
<rect x="79.2034" y="121.286" width="141" height="1.5" transform="rotate(-90 79.2034 121.286)" fill="#FAF0E6"/>
<rect x="84.7034" y="121.286" width="141" height="1.5" transform="rotate(-90 84.7034 121.286)" fill="#FAF0E6"/>
<rect x="90.2034" y="121.286" width="141" height="1.5" transform="rotate(-90 90.2034 121.286)" fill="#FAF0E6"/>
<rect x="95.7034" y="121.286" width="141" height="1.5" transform="rotate(-90 95.7034 121.286)" fill="#FAF0E6"/>
<rect x="101.203" y="121.286" width="141" height="1.5" transform="rotate(-90 101.203 121.286)" fill="#FAF0E6"/>
<rect x="106.703" y="121.286" width="141" height="1.5" transform="rotate(-90 106.703 121.286)" fill="#FAF0E6"/>
<rect x="112.203" y="121.286" width="141" height="1.5" transform="rotate(-90 112.203 121.286)" fill="#FAF0E6"/>
<rect x="117.703" y="121.286" width="141" height="1.5" transform="rotate(-90 117.703 121.286)" fill="#FAF0E6"/>
<rect x="123.203" y="121.286" width="141" height="1.5" transform="rotate(-90 123.203 121.286)" fill="#FAF0E6"/>
</g>
</g>
<rect x="24.0607" y="50.7861" width="69.6154" height="69.6154" transform="rotate(-45 24.0607 50.7861)" stroke="#FAF0E6" stroke-width="1.5"/>
<rect x="23.5723" y="106.072" width="100" height="1.5" fill="#FAF0E6"/>
<path d="M71.3945 117.342V109.572H72.4844V118.572H71.4883L71.3945 117.342ZM67.1289 115.473V115.35C67.1289 114.865 67.1875 114.426 67.3047 114.031C67.4258 113.633 67.5957 113.291 67.8145 113.006C68.0371 112.721 68.3008 112.502 68.6055 112.35C68.9141 112.193 69.2578 112.115 69.6367 112.115C70.0352 112.115 70.3828 112.186 70.6797 112.326C70.9805 112.463 71.2344 112.664 71.4414 112.93C71.6523 113.191 71.8184 113.508 71.9395 113.879C72.0605 114.25 72.1445 114.67 72.1914 115.139V115.678C72.1484 116.143 72.0645 116.561 71.9395 116.932C71.8184 117.303 71.6523 117.619 71.4414 117.881C71.2344 118.143 70.9805 118.344 70.6797 118.484C70.3789 118.621 70.0273 118.69 69.625 118.69C69.2539 118.69 68.9141 118.609 68.6055 118.449C68.3008 118.289 68.0371 118.065 67.8145 117.775C67.5957 117.486 67.4258 117.147 67.3047 116.756C67.1875 116.361 67.1289 115.934 67.1289 115.473ZM68.2188 115.35V115.473C68.2188 115.789 68.25 116.086 68.3125 116.363C68.3789 116.641 68.4805 116.885 68.6172 117.096C68.7539 117.307 68.9277 117.473 69.1387 117.594C69.3496 117.711 69.6016 117.77 69.8945 117.77C70.2539 117.77 70.5488 117.693 70.7793 117.541C71.0137 117.389 71.2012 117.188 71.3418 116.938C71.4824 116.688 71.5918 116.416 71.6699 116.123V114.711C71.623 114.496 71.5547 114.289 71.4648 114.09C71.3789 113.887 71.2656 113.707 71.125 113.551C70.9883 113.391 70.8184 113.264 70.6152 113.17C70.416 113.076 70.1797 113.029 69.9062 113.029C69.6094 113.029 69.3535 113.092 69.1387 113.217C68.9277 113.338 68.7539 113.506 68.6172 113.721C68.4805 113.932 68.3789 114.178 68.3125 114.459C68.25 114.736 68.2188 115.033 68.2188 115.35ZM79.6445 117.682V118.572H74.0605V117.793L76.8555 114.682C77.1992 114.299 77.4648 113.975 77.6523 113.709C77.8438 113.44 77.9766 113.199 78.0508 112.988C78.1289 112.773 78.168 112.555 78.168 112.332C78.168 112.051 78.1094 111.797 77.9922 111.57C77.8789 111.34 77.7109 111.156 77.4883 111.02C77.2656 110.883 76.9961 110.815 76.6797 110.815C76.3008 110.815 75.9844 110.889 75.7305 111.037C75.4805 111.182 75.293 111.385 75.168 111.647C75.043 111.908 74.9805 112.209 74.9805 112.549H73.8965C73.8965 112.068 74.002 111.629 74.2129 111.231C74.4238 110.832 74.7363 110.516 75.1504 110.281C75.5645 110.043 76.0742 109.924 76.6797 109.924C77.2188 109.924 77.6797 110.02 78.0625 110.211C78.4453 110.398 78.7383 110.664 78.9414 111.008C79.1484 111.348 79.252 111.746 79.252 112.203C79.252 112.453 79.209 112.707 79.123 112.965C79.041 113.219 78.9258 113.473 78.7773 113.727C78.6328 113.981 78.4629 114.231 78.2676 114.477C78.0762 114.723 77.8711 114.965 77.6523 115.203L75.3672 117.682H79.6445Z" fill="#FAF0E6"/>
</g>
<defs>
<clipPath id="clip0_58_321">
<rect width="123.072" height="121.072" fill="white" transform="translate(0.5 0.5)"/>
</clipPath>
<clipPath id="clip1_58_321">
<rect x="23" y="50.7861" width="71.1154" height="71.1154" transform="rotate(-45 23 50.7861)" fill="white"/>
</clipPath>
<clipPath id="clip2_58_321">
<rect width="141" height="139" fill="white" transform="matrix(0 -1 1 0 24.2035 121.286)"/>
</clipPath>
</defs>
</svg>
