<svg width="114" height="121" viewBox="0 0 114 121" fill="none" xmlns="http://www.w3.org/2000/svg">
<g clip-path="url(#clip0_58_285)">
<path d="M1.91016 74.1562V79.5H0.826172V73.1602H1.88086L1.91016 74.1562ZM3.89062 73.125L3.88477 74.1328C3.79492 74.1133 3.70898 74.1016 3.62695 74.0977C3.54883 74.0898 3.45898 74.0859 3.35742 74.0859C3.10742 74.0859 2.88672 74.125 2.69531 74.2031C2.50391 74.2812 2.3418 74.3906 2.20898 74.5312C2.07617 74.6719 1.9707 74.8398 1.89258 75.0352C1.81836 75.2266 1.76953 75.4375 1.74609 75.668L1.44141 75.8438C1.44141 75.4609 1.47852 75.1016 1.55273 74.7656C1.63086 74.4297 1.75 74.1328 1.91016 73.875C2.07031 73.6133 2.27344 73.4102 2.51953 73.2656C2.76953 73.1172 3.06641 73.043 3.41016 73.043C3.48828 73.043 3.57812 73.0527 3.67969 73.0723C3.78125 73.0879 3.85156 73.1055 3.89062 73.125Z" fill="#FAF0E6"/>
<rect x="7" y="50.5" width="1.5" height="50" fill="#FAF0E6"/>
<g clip-path="url(#clip1_58_285)">
<g clip-path="url(#clip2_58_285)">
<rect x="-35.5" y="51.202" width="141" height="1.5" transform="rotate(-45 -35.5 51.202)" fill="#FAF0E6"/>
<rect x="-31.611" y="55.0911" width="141" height="1.5" transform="rotate(-45 -31.611 55.0911)" fill="#FAF0E6"/>
<rect x="-27.7218" y="58.9802" width="141" height="1.5" transform="rotate(-45 -27.7218 58.9802)" fill="#FAF0E6"/>
<rect x="-23.8328" y="62.8693" width="141" height="1.5" transform="rotate(-45 -23.8328 62.8693)" fill="#FAF0E6"/>
<rect x="-19.9436" y="66.7584" width="141" height="1.5" transform="rotate(-45 -19.9436 66.7584)" fill="#FAF0E6"/>
<rect x="-16.0546" y="70.6475" width="141" height="1.5" transform="rotate(-45 -16.0546 70.6475)" fill="#FAF0E6"/>
<rect x="-12.1655" y="74.5366" width="141" height="1.5" transform="rotate(-45 -12.1655 74.5366)" fill="#FAF0E6"/>
<rect x="-8.27637" y="78.4257" width="141" height="1.5" transform="rotate(-45 -8.27637 78.4257)" fill="#FAF0E6"/>
<rect x="-4.38733" y="82.3147" width="141" height="1.5" transform="rotate(-45 -4.38733 82.3147)" fill="#FAF0E6"/>
<rect x="-0.498169" y="86.2038" width="141" height="1.5" transform="rotate(-45 -0.498169 86.2038)" fill="#FAF0E6"/>
<rect x="3.39087" y="90.0929" width="141" height="1.5" transform="rotate(-45 3.39087 90.0929)" fill="#FAF0E6"/>
<rect x="7.27991" y="93.982" width="141" height="1.5" transform="rotate(-45 7.27991 93.982)" fill="#FAF0E6"/>
<rect x="11.1691" y="97.8711" width="141" height="1.5" transform="rotate(-45 11.1691 97.8711)" fill="#FAF0E6"/>
<rect x="15.0581" y="101.76" width="141" height="1.5" transform="rotate(-45 15.0581 101.76)" fill="#FAF0E6"/>
<rect x="18.9473" y="105.649" width="141" height="1.5" transform="rotate(-45 18.9473 105.649)" fill="#FAF0E6"/>
<rect x="22.8363" y="109.538" width="141" height="1.5" transform="rotate(-45 22.8363 109.538)" fill="#FAF0E6"/>
<rect x="26.7253" y="113.427" width="141" height="1.5" transform="rotate(-45 26.7253 113.427)" fill="#FAF0E6"/>
<rect x="30.6145" y="117.316" width="141" height="1.5" transform="rotate(-45 30.6145 117.316)" fill="#FAF0E6"/>
<rect x="34.5035" y="121.206" width="141" height="1.5" transform="rotate(-45 34.5035 121.206)" fill="#FAF0E6"/>
<rect x="38.3927" y="125.095" width="141" height="1.5" transform="rotate(-45 38.3927 125.095)" fill="#FAF0E6"/>
<rect x="42.2817" y="128.984" width="141" height="1.5" transform="rotate(-45 42.2817 128.984)" fill="#FAF0E6"/>
<rect x="46.1708" y="132.873" width="141" height="1.5" transform="rotate(-45 46.1708 132.873)" fill="#FAF0E6"/>
<rect x="50.0599" y="136.762" width="141" height="1.5" transform="rotate(-45 50.0599 136.762)" fill="#FAF0E6"/>
<rect x="53.949" y="140.651" width="141" height="1.5" transform="rotate(-45 53.949 140.651)" fill="#FAF0E6"/>
<rect x="57.8381" y="144.54" width="141" height="1.5" transform="rotate(-45 57.8381 144.54)" fill="#FAF0E6"/>
<rect x="61.7272" y="148.429" width="141" height="1.5" transform="rotate(-45 61.7272 148.429)" fill="#FAF0E6"/>
</g>
</g>
<rect x="14.25" y="1.25" width="98.5" height="98.5" rx="49.25" stroke="#FAF0E6" stroke-width="1.5"/>
<rect x="13.5" y="105.5" width="100" height="1.5" fill="#FAF0E6"/>
<path d="M64.8223 116.77V109H65.9121V118H64.916L64.8223 116.77ZM60.5566 114.9V114.777C60.5566 114.293 60.6152 113.854 60.7324 113.459C60.8535 113.061 61.0234 112.719 61.2422 112.434C61.4648 112.148 61.7285 111.93 62.0332 111.777C62.3418 111.621 62.6855 111.543 63.0645 111.543C63.4629 111.543 63.8105 111.613 64.1074 111.754C64.4082 111.891 64.6621 112.092 64.8691 112.357C65.0801 112.619 65.2461 112.936 65.3672 113.307C65.4883 113.678 65.5723 114.098 65.6191 114.566V115.105C65.5762 115.57 65.4922 115.988 65.3672 116.359C65.2461 116.73 65.0801 117.047 64.8691 117.309C64.6621 117.57 64.4082 117.771 64.1074 117.912C63.8066 118.049 63.4551 118.117 63.0527 118.117C62.6816 118.117 62.3418 118.037 62.0332 117.877C61.7285 117.717 61.4648 117.492 61.2422 117.203C61.0234 116.914 60.8535 116.574 60.7324 116.184C60.6152 115.789 60.5566 115.361 60.5566 114.9ZM61.6465 114.777V114.9C61.6465 115.217 61.6777 115.514 61.7402 115.791C61.8066 116.068 61.9082 116.312 62.0449 116.523C62.1816 116.734 62.3555 116.9 62.5664 117.021C62.7773 117.139 63.0293 117.197 63.3223 117.197C63.6816 117.197 63.9766 117.121 64.207 116.969C64.4414 116.816 64.6289 116.615 64.7695 116.365C64.9102 116.115 65.0195 115.844 65.0977 115.551V114.139C65.0508 113.924 64.9824 113.717 64.8926 113.518C64.8066 113.314 64.6934 113.135 64.5527 112.979C64.416 112.818 64.2461 112.691 64.043 112.598C63.8438 112.504 63.6074 112.457 63.334 112.457C63.0371 112.457 62.7812 112.52 62.5664 112.645C62.3555 112.766 62.1816 112.934 62.0449 113.148C61.9082 113.359 61.8066 113.605 61.7402 113.887C61.6777 114.164 61.6465 114.461 61.6465 114.777Z" fill="#FAF0E6"/>
</g>
<defs>
<clipPath id="clip0_58_285">
<rect width="113.5" height="120.5" fill="white" transform="translate(0 0.5)"/>
</clipPath>
<clipPath id="clip1_58_285">
<rect x="13.5" y="0.5" width="100" height="100" rx="50" fill="white"/>
</clipPath>
<clipPath id="clip2_58_285">
<rect width="141" height="139" fill="white" transform="translate(-35.5 51.202) rotate(-45)"/>
</clipPath>
</defs>
</svg>
