<svg width="113" height="121" viewBox="0 0 113 121" fill="none" xmlns="http://www.w3.org/2000/svg">
<g clip-path="url(#clip0_58_137)">
<path d="M3.48047 47.6602V48.4922H0.0527344V47.6602H3.48047ZM1.21289 46.1191H2.29688V52.4297C2.29688 52.6445 2.33008 52.8066 2.39648 52.916C2.46289 53.0254 2.54883 53.0977 2.6543 53.1328C2.75977 53.168 2.87305 53.1855 2.99414 53.1855C3.08398 53.1855 3.17773 53.1777 3.27539 53.1621C3.37695 53.1426 3.45312 53.127 3.50391 53.1152L3.50977 54C3.42383 54.0273 3.31055 54.0527 3.16992 54.0762C3.0332 54.1035 2.86719 54.1172 2.67188 54.1172C2.40625 54.1172 2.16211 54.0645 1.93945 53.959C1.7168 53.8535 1.53906 53.6777 1.40625 53.4316C1.27734 53.1816 1.21289 52.8457 1.21289 52.4238V46.1191Z" fill="#FAF0E6"/>
<rect x="6" width="1.5" height="100" fill="#FAF0E6"/>
<g clip-path="url(#clip1_58_137)">
<g clip-path="url(#clip2_58_137)">
<rect x="-36.5" y="50.702" width="141" height="1.5" transform="rotate(-45 -36.5 50.702)" fill="#FAF0E6"/>
<rect x="-32.611" y="54.5911" width="141" height="1.5" transform="rotate(-45 -32.611 54.5911)" fill="#FAF0E6"/>
<rect x="-28.7218" y="58.4802" width="141" height="1.5" transform="rotate(-45 -28.7218 58.4802)" fill="#FAF0E6"/>
<rect x="-24.8328" y="62.3693" width="141" height="1.5" transform="rotate(-45 -24.8328 62.3693)" fill="#FAF0E6"/>
<rect x="-20.9436" y="66.2584" width="141" height="1.5" transform="rotate(-45 -20.9436 66.2584)" fill="#FAF0E6"/>
<rect x="-17.0546" y="70.1475" width="141" height="1.5" transform="rotate(-45 -17.0546 70.1475)" fill="#FAF0E6"/>
<rect x="-13.1655" y="74.0366" width="141" height="1.5" transform="rotate(-45 -13.1655 74.0366)" fill="#FAF0E6"/>
<rect x="-9.27637" y="77.9257" width="141" height="1.5" transform="rotate(-45 -9.27637 77.9257)" fill="#FAF0E6"/>
<rect x="-5.38733" y="81.8147" width="141" height="1.5" transform="rotate(-45 -5.38733 81.8147)" fill="#FAF0E6"/>
<rect x="-1.49817" y="85.7038" width="141" height="1.5" transform="rotate(-45 -1.49817 85.7038)" fill="#FAF0E6"/>
<rect x="2.39087" y="89.5929" width="141" height="1.5" transform="rotate(-45 2.39087 89.5929)" fill="#FAF0E6"/>
<rect x="6.27991" y="93.482" width="141" height="1.5" transform="rotate(-45 6.27991 93.482)" fill="#FAF0E6"/>
<rect x="10.1691" y="97.3711" width="141" height="1.5" transform="rotate(-45 10.1691 97.3711)" fill="#FAF0E6"/>
<rect x="14.0581" y="101.26" width="141" height="1.5" transform="rotate(-45 14.0581 101.26)" fill="#FAF0E6"/>
<rect x="17.9473" y="105.149" width="141" height="1.5" transform="rotate(-45 17.9473 105.149)" fill="#FAF0E6"/>
<rect x="21.8363" y="109.038" width="141" height="1.5" transform="rotate(-45 21.8363 109.038)" fill="#FAF0E6"/>
<rect x="25.7253" y="112.927" width="141" height="1.5" transform="rotate(-45 25.7253 112.927)" fill="#FAF0E6"/>
<rect x="29.6145" y="116.817" width="141" height="1.5" transform="rotate(-45 29.6145 116.817)" fill="#FAF0E6"/>
<rect x="33.5035" y="120.706" width="141" height="1.5" transform="rotate(-45 33.5035 120.706)" fill="#FAF0E6"/>
<rect x="37.3927" y="124.595" width="141" height="1.5" transform="rotate(-45 37.3927 124.595)" fill="#FAF0E6"/>
<rect x="41.2817" y="128.484" width="141" height="1.5" transform="rotate(-45 41.2817 128.484)" fill="#FAF0E6"/>
<rect x="45.1708" y="132.373" width="141" height="1.5" transform="rotate(-45 45.1708 132.373)" fill="#FAF0E6"/>
<rect x="49.0599" y="136.262" width="141" height="1.5" transform="rotate(-45 49.0599 136.262)" fill="#FAF0E6"/>
<rect x="52.949" y="140.151" width="141" height="1.5" transform="rotate(-45 52.949 140.151)" fill="#FAF0E6"/>
<rect x="56.8381" y="144.04" width="141" height="1.5" transform="rotate(-45 56.8381 144.04)" fill="#FAF0E6"/>
<rect x="60.7272" y="147.929" width="141" height="1.5" transform="rotate(-45 60.7272 147.929)" fill="#FAF0E6"/>
</g>
</g>
<rect x="13.25" y="0.75" width="98.5" height="98.5" stroke="#FAF0E6" stroke-width="1.5"/>
<rect x="12.5" y="105" width="100" height="1.5" fill="#FAF0E6"/>
<path d="M63.0039 108.5V117.5H61.9141V108.5H63.0039Z" fill="#FAF0E6"/>
</g>
<defs>
<clipPath id="clip0_58_137">
<rect width="112.5" height="120.5" fill="white"/>
</clipPath>
<clipPath id="clip1_58_137">
<rect x="12.5" width="100" height="100" fill="white"/>
</clipPath>
<clipPath id="clip2_58_137">
<rect width="141" height="139" fill="white" transform="translate(-36.5 50.702) rotate(-45)"/>
</clipPath>
</defs>
</svg>
