<svg width="129" height="121" viewBox="0 0 129 121" fill="none" xmlns="http://www.w3.org/2000/svg">
<g clip-path="url(#clip0_58_246)">
<path d="M4.06665 47.6602V48.4922H0.638916V47.6602H4.06665ZM1.79907 46.1191H2.88306V52.4297C2.88306 52.6445 2.91626 52.8066 2.98267 52.916C3.04907 53.0254 3.13501 53.0977 3.24048 53.1328C3.34595 53.168 3.45923 53.1855 3.58032 53.1855C3.67017 53.1855 3.76392 53.1777 3.86157 53.1621C3.96313 53.1426 4.03931 53.127 4.09009 53.1152L4.09595 54C4.01001 54.0273 3.89673 54.0527 3.7561 54.0762C3.61938 54.1035 3.45337 54.1172 3.25806 54.1172C2.99243 54.1172 2.74829 54.0645 2.52563 53.959C2.30298 53.8535 2.12524 53.6777 1.99243 53.4316C1.86353 53.1816 1.79907 52.8457 1.79907 52.4238V46.1191Z" fill="#FAF0E6"/>
<rect x="6.58618" width="1.5" height="100" fill="#FAF0E6"/>
<path fill-rule="evenodd" clip-rule="evenodd" d="M69.9552 1.5L70.8212 0L71.5412 1.24703L71.6872 1.5L72.3176 2.59189L74.3882 6.17817L75.1646 7.52303L77.2352 11.1094L78.0117 12.4542L80.0822 16.0405L80.8587 17.3854L82.9292 20.9717L83.7057 22.3166L85.7762 25.9029L86.5527 27.2477L88.6232 30.834L89.3997 32.1789L91.4703 35.7652L92.2467 37.1101L94.3172 40.6963L95.0937 42.0412L97.1643 45.6275L97.9407 46.9724L100.011 50.5587L100.788 51.9035L102.858 55.4898L103.635 56.8347L105.705 60.421L106.482 61.7659L108.552 65.3522L109.329 66.697L111.399 70.2834L112.176 71.6282L114.246 75.2145L115.023 76.5594L117.093 80.1456L117.87 81.4905L119.94 85.0768L120.717 86.4217L122.787 90.008L123.564 91.3528L125.634 94.9392L126.411 96.2841L127.69 98.5L128.481 99.8703L128.556 100H128.352H126.824H122.695H120.574H114.917H112.795H107.138H105.017H99.3603H97.239H91.5821H89.4608H83.804H81.6827H76.0258H73.9045H68.2476H66.1263H60.4694H58.3481H52.6913H50.5699H44.9131H42.7918H37.1349H35.0136H29.3568H27.2354H21.5785H19.4572H14.8182H13.8004H13.0862L13.9522 98.5L15.0083 96.6708L22.7357 83.2866L25.6335 78.2675L33.3609 64.8831L36.2587 59.864L43.9861 46.4798L46.8838 41.4607L54.6113 28.0763L57.5091 23.0572L65.2365 9.67308L68.1342 4.65398L69.9552 1.5ZM69.3345 5.575L61.6072 18.9592L73.2901 7.27625L71.2196 3.68997L69.3345 5.575ZM74.0666 8.62111L58.7094 23.9783L50.9819 37.3627L76.1371 12.2074L74.0666 8.62111ZM76.9136 13.5523L48.0841 42.3818L40.3568 55.7659L78.9841 17.1386L76.9136 13.5523ZM79.7606 18.4834L37.459 60.785L29.7315 74.1694L81.8312 22.0698L79.7606 18.4834ZM82.6076 23.4146L26.8338 79.1885L19.1064 92.5727L84.6782 27.0009L82.6076 23.4146ZM85.4546 28.3458L16.2086 97.5918L15.6843 98.5H20.9572L87.5251 31.9321L85.4546 28.3458ZM88.3016 33.2769L23.0785 98.5H28.7354L90.3722 36.8633L88.3016 33.2769ZM91.1486 38.2081L30.8568 98.5H36.5136L93.2192 41.7944L91.1486 38.2081ZM93.9956 43.1393L38.6349 98.5H44.2918L96.0662 46.7256L93.9956 43.1393ZM96.8427 48.0705L46.4131 98.5H52.0699L98.9132 51.6568L96.8427 48.0705ZM99.6897 53.0016L54.1913 98.5H59.8481L101.76 56.5879L99.6897 53.0016ZM102.537 57.9328L61.9694 98.5H67.6263L104.607 61.5191L102.537 57.9328ZM105.384 62.8639L69.7476 98.5H75.4045L107.454 66.4502L105.384 62.8639ZM108.231 67.7951L77.5258 98.5H83.1827L110.301 71.3815L108.231 67.7951ZM111.078 72.7263L85.304 98.5H90.9608L113.148 76.3126L111.078 72.7263ZM113.925 77.6574L93.0821 98.5H98.739L115.995 81.2437L113.925 77.6574ZM116.772 82.5886L100.86 98.5H106.517L118.842 86.1749L116.772 82.5886ZM119.619 87.5198L108.638 98.5H114.295L121.689 91.1061L119.619 87.5198ZM122.466 92.4509L116.417 98.5H122.074L124.536 96.0373L122.466 92.4509ZM125.313 97.3821L124.195 98.5H125.958L125.313 97.3821Z" fill="#FAF0E6"/>
<rect x="13.0862" y="105" width="115.47" height="1.5" fill="#FAF0E6"/>
<path d="M71.8857 116.416V113.152C71.8857 112.902 71.835 112.686 71.7334 112.502C71.6357 112.314 71.4873 112.17 71.2881 112.068C71.0889 111.967 70.8428 111.916 70.5498 111.916C70.2764 111.916 70.0361 111.963 69.8291 112.057C69.626 112.15 69.4658 112.273 69.3486 112.426C69.2354 112.578 69.1787 112.742 69.1787 112.918H68.0947C68.0947 112.691 68.1533 112.467 68.2705 112.244C68.3877 112.021 68.5557 111.82 68.7744 111.641C68.9971 111.457 69.2627 111.312 69.5713 111.207C69.8838 111.098 70.2314 111.043 70.6143 111.043C71.0752 111.043 71.4814 111.121 71.833 111.277C72.1885 111.434 72.4658 111.67 72.665 111.986C72.8682 112.299 72.9697 112.691 72.9697 113.164V116.117C72.9697 116.328 72.9873 116.553 73.0225 116.791C73.0615 117.029 73.1182 117.234 73.1924 117.406V117.5H72.0615C72.0068 117.375 71.9639 117.209 71.9326 117.002C71.9014 116.791 71.8857 116.596 71.8857 116.416ZM72.0732 113.656L72.085 114.418H70.9893C70.6807 114.418 70.4053 114.443 70.1631 114.494C69.9209 114.541 69.7178 114.613 69.5537 114.711C69.3896 114.809 69.2646 114.932 69.1787 115.08C69.0928 115.225 69.0498 115.395 69.0498 115.59C69.0498 115.789 69.0947 115.971 69.1846 116.135C69.2744 116.299 69.4092 116.43 69.5889 116.527C69.7725 116.621 69.9971 116.668 70.2627 116.668C70.5947 116.668 70.8877 116.598 71.1416 116.457C71.3955 116.316 71.5967 116.145 71.7451 115.941C71.8975 115.738 71.9795 115.541 71.9912 115.35L72.4541 115.871C72.4268 116.035 72.3525 116.217 72.2314 116.416C72.1104 116.615 71.9482 116.807 71.7451 116.99C71.5459 117.17 71.3076 117.32 71.0303 117.441C70.7568 117.559 70.4482 117.617 70.1045 117.617C69.6748 117.617 69.2979 117.533 68.9736 117.365C68.6533 117.197 68.4033 116.973 68.2236 116.691C68.0479 116.406 67.96 116.088 67.96 115.736C67.96 115.396 68.0264 115.098 68.1592 114.84C68.292 114.578 68.4834 114.361 68.7334 114.189C68.9834 114.014 69.2842 113.881 69.6357 113.791C69.9873 113.701 70.3799 113.656 70.8135 113.656H72.0732Z" fill="#FAF0E6"/>
</g>
<defs>
<clipPath id="clip0_58_246">
<rect width="127.97" height="120.5" fill="white" transform="translate(0.586182)"/>
</clipPath>
</defs>
</svg>
