<svg width="133" height="142" viewBox="0 0 133 142" fill="none" xmlns="http://www.w3.org/2000/svg">
<g clip-path="url(#clip0_58_396)">
<path d="M69.8926 2.5H70.9824V10.2695L70.8887 11.5H69.8926V2.5ZM75.2656 8.27734V8.40039C75.2656 8.86133 75.2109 9.28906 75.1016 9.68359C74.9922 10.0742 74.832 10.4141 74.6211 10.7031C74.4102 10.9922 74.1523 11.2168 73.8477 11.377C73.543 11.5371 73.1934 11.6172 72.7988 11.6172C72.3965 11.6172 72.043 11.5488 71.7383 11.4121C71.4375 11.2715 71.1836 11.0703 70.9766 10.8086C70.7695 10.5469 70.6035 10.2305 70.4785 9.85938C70.3574 9.48828 70.2734 9.07031 70.2266 8.60547V8.06641C70.2734 7.59766 70.3574 7.17773 70.4785 6.80664C70.6035 6.43555 70.7695 6.11914 70.9766 5.85742C71.1836 5.5918 71.4375 5.39062 71.7383 5.25391C72.0391 5.11328 72.3887 5.04297 72.7871 5.04297C73.1855 5.04297 73.5391 5.12109 73.8477 5.27734C74.1562 5.42969 74.4141 5.64844 74.6211 5.93359C74.832 6.21875 74.9922 6.56055 75.1016 6.95898C75.2109 7.35352 75.2656 7.79297 75.2656 8.27734ZM74.1758 8.40039V8.27734C74.1758 7.96094 74.1465 7.66406 74.0879 7.38672C74.0293 7.10547 73.9355 6.85938 73.8066 6.64844C73.6777 6.43359 73.5078 6.26562 73.2969 6.14453C73.0859 6.01953 72.8262 5.95703 72.5176 5.95703C72.2441 5.95703 72.0059 6.00391 71.8027 6.09766C71.6035 6.19141 71.4336 6.31836 71.293 6.47852C71.1523 6.63477 71.0371 6.81445 70.9473 7.01758C70.8613 7.2168 70.7969 7.42383 70.7539 7.63867V9.05078C70.8164 9.32422 70.918 9.58789 71.0586 9.8418C71.2031 10.0918 71.3945 10.2969 71.6328 10.457C71.875 10.6172 72.1738 10.6973 72.5293 10.6973C72.8223 10.6973 73.0723 10.6387 73.2793 10.5215C73.4902 10.4004 73.6602 10.2344 73.7891 10.0234C73.9219 9.8125 74.0195 9.56836 74.082 9.29102C74.1445 9.01367 74.1758 8.7168 74.1758 8.40039Z" fill="#FAF0E6"/>
<rect x="32.5723" y="14.5" width="80" height="1.5" fill="#FAF0E6"/>
<path d="M3.55273 68.6602V69.4922H0.125V68.6602H3.55273ZM1.28516 67.1191H2.36914V73.4297C2.36914 73.6445 2.40234 73.8066 2.46875 73.916C2.53516 74.0254 2.62109 74.0977 2.72656 74.1328C2.83203 74.168 2.94531 74.1855 3.06641 74.1855C3.15625 74.1855 3.25 74.1777 3.34766 74.1621C3.44922 74.1426 3.52539 74.127 3.57617 74.1152L3.58203 75C3.49609 75.0273 3.38281 75.0527 3.24219 75.0762C3.10547 75.1035 2.93945 75.1172 2.74414 75.1172C2.47852 75.1172 2.23438 75.0645 2.01172 74.959C1.78906 74.8535 1.61133 74.6777 1.47852 74.4316C1.34961 74.1816 1.28516 73.8457 1.28516 73.4238V67.1191Z" fill="#FAF0E6"/>
<rect x="6.07227" y="21" width="1.5" height="100" fill="#FAF0E6"/>
<path fill-rule="evenodd" clip-rule="evenodd" d="M34.8956 22.5L33.5286 23.8671L32.1143 30.9382L40.5525 22.5H34.8956ZM42.0525 21H44.1738H49.8307H51.952H57.6088H59.7301H65.387H67.5083H73.1652H75.2865H80.9434H83.0647H88.7215H90.8428H96.4997H98.621H104.278H106.399H112.056H112.572L112.84 22.3376L113.783 27.0516L114.136 28.8194L115.079 33.5334L115.433 35.3012L116.375 40.0152L116.729 41.783L117.672 46.4971L118.025 48.2648L118.968 52.9789L119.322 54.7466L120.264 59.4607L120.618 61.2285L121.561 65.9425L121.914 67.7103L122.857 72.4243L123.211 74.192L124.153 78.9061L124.507 80.6739L125.45 85.3879L125.803 87.1557L126.746 91.8697L127.1 93.6375L128.043 98.3516L128.396 100.119L129.339 104.833L129.692 106.601L130.635 111.315L130.989 113.083L131.932 117.797L132.272 119.5L132.285 119.565L132.572 121H131.043H130.85H128.729H123.072H120.95H115.294H113.172H107.515H105.394H99.7373H97.616H91.9591H89.8378H84.1809H82.0596H76.4027H74.2814H68.6246H66.5033H60.8464H58.7251H53.0682H50.9469H45.2901H43.1687H37.5119H35.3905H29.7337H27.6124H21.9555H19.8342H14.1773H14.102H12.5723L12.7013 120.355L12.8723 119.5L14.1155 113.284L14.6459 110.632L16.0601 103.561L16.5904 100.909L18.0046 93.8382L18.535 91.1866L19.9492 84.1155L20.4795 81.4639L21.8937 74.3928L22.424 71.7411L23.8383 64.67L24.3686 62.0184L25.7828 54.9473L26.3131 52.2957L27.7273 45.2246L28.2577 42.573L29.6719 35.5019L30.2022 32.8503L31.6164 25.7792L32.1468 23.1275L32.5723 21H34.2743H36.3956H42.0525ZM31.584 33.5898L30.1698 40.6609L48.3307 22.5H42.6738L31.584 33.5898ZM50.452 22.5L29.6395 43.3125L28.2253 50.3835L56.1088 22.5H50.452ZM58.2301 22.5L27.6949 53.0352L26.2807 60.1062L63.887 22.5H58.2301ZM66.0083 22.5L25.7504 62.7579L24.3362 69.829L71.6652 22.5H66.0083ZM73.7865 22.5L23.8058 72.4806L22.3916 79.5517L79.4434 22.5H73.7865ZM81.5647 22.5L21.8613 82.2034L20.4471 89.2744L87.2215 22.5H81.5647ZM89.3428 22.5L19.9168 91.9261L18.5025 98.9971L94.9997 22.5H89.3428ZM97.121 22.5L17.9722 101.649L16.558 108.72L102.778 22.5H97.121ZM104.899 22.5L16.0277 111.371L14.6135 118.443L110.556 22.5H104.899ZM111.565 23.6123L15.6773 119.5H21.3342L112.508 28.3264L111.565 23.6123ZM112.861 30.0942L23.4555 119.5H29.1124L113.804 34.8082L112.861 30.0942ZM114.158 36.576L31.2337 119.5H36.8905L115.101 41.29L114.158 36.576ZM115.454 43.0578L39.0119 119.5H44.6687L116.397 47.7718L115.454 43.0578ZM116.75 49.5396L46.7901 119.5H52.4469L117.693 54.2536L116.75 49.5396ZM118.047 56.0214L54.5682 119.5H60.2251L118.99 60.7354L118.047 56.0214ZM119.343 62.5032L62.3464 119.5H68.0033L120.286 67.2173L119.343 62.5032ZM120.64 68.985L70.1246 119.5H75.7814L121.582 73.699L120.64 68.985ZM121.936 75.4668L77.9027 119.5H83.5596L122.879 80.1809L121.936 75.4668ZM123.232 81.9486L85.6809 119.5H91.3378L124.175 86.6627L123.232 81.9486ZM124.529 88.4304L93.4591 119.5H99.116L125.471 93.1445L124.529 88.4304ZM125.825 94.9123L101.237 119.5H106.894L126.768 99.6263L125.825 94.9123ZM127.121 101.394L109.015 119.5H114.672L128.064 106.108L127.121 101.394ZM128.418 107.876L116.794 119.5H122.45L129.361 112.59L128.418 107.876ZM129.714 114.358L124.572 119.5H130.229L130.657 119.072L129.714 114.358Z" fill="#FAF0E6"/>
<rect x="12.5723" y="126" width="120" height="1.5" fill="#FAF0E6"/>
<path d="M73.6367 137.416V134.152C73.6367 133.902 73.5859 133.686 73.4844 133.502C73.3867 133.314 73.2383 133.17 73.0391 133.068C72.8398 132.967 72.5938 132.916 72.3008 132.916C72.0273 132.916 71.7871 132.963 71.5801 133.057C71.377 133.15 71.2168 133.273 71.0996 133.426C70.9863 133.578 70.9297 133.742 70.9297 133.918H69.8457C69.8457 133.691 69.9043 133.467 70.0215 133.244C70.1387 133.021 70.3066 132.82 70.5254 132.641C70.748 132.457 71.0137 132.312 71.3223 132.207C71.6348 132.098 71.9824 132.043 72.3652 132.043C72.8262 132.043 73.2324 132.121 73.584 132.277C73.9395 132.434 74.2168 132.67 74.416 132.986C74.6191 133.299 74.7207 133.691 74.7207 134.164V137.117C74.7207 137.328 74.7383 137.553 74.7734 137.791C74.8125 138.029 74.8691 138.234 74.9434 138.406V138.5H73.8125C73.7578 138.375 73.7148 138.209 73.6836 138.002C73.6523 137.791 73.6367 137.596 73.6367 137.416ZM73.8242 134.656L73.8359 135.418H72.7402C72.4316 135.418 72.1562 135.443 71.9141 135.494C71.6719 135.541 71.4688 135.613 71.3047 135.711C71.1406 135.809 71.0156 135.932 70.9297 136.08C70.8438 136.225 70.8008 136.395 70.8008 136.59C70.8008 136.789 70.8457 136.971 70.9355 137.135C71.0254 137.299 71.1602 137.43 71.3398 137.527C71.5234 137.621 71.748 137.668 72.0137 137.668C72.3457 137.668 72.6387 137.598 72.8926 137.457C73.1465 137.316 73.3477 137.145 73.4961 136.941C73.6484 136.738 73.7305 136.541 73.7422 136.35L74.2051 136.871C74.1777 137.035 74.1035 137.217 73.9824 137.416C73.8613 137.615 73.6992 137.807 73.4961 137.99C73.2969 138.17 73.0586 138.32 72.7812 138.441C72.5078 138.559 72.1992 138.617 71.8555 138.617C71.4258 138.617 71.0488 138.533 70.7246 138.365C70.4043 138.197 70.1543 137.973 69.9746 137.691C69.7988 137.406 69.7109 137.088 69.7109 136.736C69.7109 136.396 69.7773 136.098 69.9102 135.84C70.043 135.578 70.2344 135.361 70.4844 135.189C70.7344 135.014 71.0352 134.881 71.3867 134.791C71.7383 134.701 72.1309 134.656 72.5645 134.656H73.8242Z" fill="#FAF0E6"/>
</g>
<defs>
<clipPath id="clip0_58_396">
<rect width="132.5" height="141" fill="white" transform="translate(0.0722656 0.5)"/>
</clipPath>
</defs>
</svg>
